<svg width="74" height="74" viewBox="0 0 74 74" fill="none" xmlns="http://www.w3.org/2000/svg">
<circle cx="37" cy="37" r="37" fill="#EB018C"/>
<path d="M25.5284 52V22.9091H37.1761C39.3163 22.9091 41.1013 23.2263 42.5312 23.8608C43.9612 24.4953 45.036 25.3759 45.7557 26.5028C46.4754 27.6203 46.8352 28.9081 46.8352 30.3665C46.8352 31.5028 46.608 32.5019 46.1534 33.3636C45.6989 34.2159 45.0739 34.9167 44.2784 35.4659C43.4924 36.0057 42.5928 36.3892 41.5795 36.6165V36.9006C42.6875 36.9479 43.7244 37.2604 44.6903 37.8381C45.6657 38.4157 46.4564 39.2254 47.0625 40.267C47.6686 41.2992 47.9716 42.5303 47.9716 43.9602C47.9716 45.5038 47.5881 46.8816 46.821 48.0938C46.0634 49.2964 44.9413 50.2481 43.4545 50.9489C41.9678 51.6496 40.1354 52 37.9574 52H25.5284ZM31.679 46.9716H36.6932C38.4072 46.9716 39.6572 46.6449 40.4432 45.9915C41.2292 45.3286 41.6222 44.4479 41.6222 43.3494C41.6222 42.5445 41.428 41.8343 41.0398 41.2188C40.6515 40.6032 40.0975 40.1203 39.3778 39.7699C38.6676 39.4195 37.8201 39.2443 36.8352 39.2443H31.679V46.9716ZM31.679 35.0824H36.2386C37.0814 35.0824 37.8295 34.9356 38.483 34.642C39.1458 34.339 39.6667 33.9129 40.0455 33.3636C40.4337 32.8144 40.6278 32.1562 40.6278 31.3892C40.6278 30.3381 40.2538 29.4905 39.5057 28.8466C38.767 28.2027 37.7159 27.8807 36.3523 27.8807H31.679V35.0824Z" fill="white"/>
</svg>
