<svg width="74" height="74" viewBox="0 0 74 74" fill="none" xmlns="http://www.w3.org/2000/svg">
<circle cx="37" cy="37" r="37" fill="#EB018C"/>
<path d="M49.196 33.0938H42.9744C42.8608 32.2888 42.6288 31.5739 42.2784 30.9489C41.928 30.3144 41.4782 29.7746 40.929 29.3295C40.3797 28.8845 39.7453 28.5436 39.0256 28.3068C38.3153 28.0701 37.5436 27.9517 36.7102 27.9517C35.2045 27.9517 33.893 28.3258 32.7756 29.0739C31.6581 29.8125 30.7917 30.892 30.1761 32.3125C29.5606 33.7235 29.2528 35.4375 29.2528 37.4545C29.2528 39.5284 29.5606 41.2708 30.1761 42.6818C30.8011 44.0928 31.6723 45.1581 32.7898 45.8778C33.9072 46.5975 35.1998 46.9574 36.6676 46.9574C37.4915 46.9574 38.2538 46.8485 38.9545 46.6307C39.6648 46.4129 40.2945 46.0956 40.8438 45.679C41.393 45.2528 41.8475 44.7367 42.2074 44.1307C42.5767 43.5246 42.8324 42.8333 42.9744 42.0568L49.196 42.0852C49.035 43.4205 48.6326 44.7083 47.9886 45.9489C47.3542 47.1799 46.4972 48.2831 45.4176 49.2585C44.3475 50.2244 43.0691 50.9915 41.5824 51.5597C40.1051 52.1184 38.4337 52.3977 36.5682 52.3977C33.9735 52.3977 31.6534 51.8106 29.608 50.6364C27.572 49.4621 25.9621 47.7623 24.7784 45.5369C23.6042 43.3116 23.017 40.6174 23.017 37.4545C23.017 34.2822 23.6136 31.5833 24.8068 29.358C26 27.1326 27.6193 25.4375 29.6648 24.2727C31.7102 23.0985 34.0114 22.5114 36.5682 22.5114C38.2538 22.5114 39.8163 22.7481 41.2557 23.2216C42.7045 23.6951 43.9877 24.3864 45.1051 25.2955C46.2225 26.1951 47.1316 27.2983 47.8324 28.6051C48.5426 29.9119 48.9972 31.4081 49.196 33.0938Z" fill="white"/>
</svg>
